<mxfile host="app.diagrams.net" agent="Mozilla/5.0 (Macintosh; Intel Mac OS X 10_15_7) AppleWebKit/537.36 (KHTML, like Gecko) Chrome/128.0.0.0 Safari/537.36" version="24.7.16">
  <diagram name="Page-1" id="gMUWrm_7eQ1wLzMDzJMH">
    <mxGraphModel dx="5060" dy="3505" grid="1" gridSize="10" guides="1" tooltips="1" connect="1" arrows="1" fold="1" page="1" pageScale="1" pageWidth="1169" pageHeight="827" math="0" shadow="0">
      <root>
        <mxCell id="0" />
        <mxCell id="1" parent="0" />
        <mxCell id="HcI9NC6vFRKDhO4VCnra-85" style="edgeStyle=orthogonalEdgeStyle;rounded=0;orthogonalLoop=1;jettySize=auto;html=1;exitX=0.5;exitY=1;exitDx=0;exitDy=0;entryX=0.5;entryY=0;entryDx=0;entryDy=0;" edge="1" parent="1" source="nA2eG2OlHx3KnQ0AuUty-1" target="nA2eG2OlHx3KnQ0AuUty-3">
          <mxGeometry relative="1" as="geometry" />
        </mxCell>
        <mxCell id="nA2eG2OlHx3KnQ0AuUty-1" value="Prise de rendez-vous" style="whiteSpace=wrap;strokeWidth=2;" parent="1" vertex="1">
          <mxGeometry x="-3413" y="-2430" width="208" height="49" as="geometry" />
        </mxCell>
        <mxCell id="HcI9NC6vFRKDhO4VCnra-76" style="edgeStyle=orthogonalEdgeStyle;rounded=0;orthogonalLoop=1;jettySize=auto;html=1;exitX=1;exitY=0.5;exitDx=0;exitDy=0;entryX=0;entryY=0.5;entryDx=0;entryDy=0;" edge="1" parent="1" source="nA2eG2OlHx3KnQ0AuUty-3" target="nA2eG2OlHx3KnQ0AuUty-5">
          <mxGeometry relative="1" as="geometry">
            <Array as="points">
              <mxPoint x="-3120" y="-2297" />
              <mxPoint x="-3120" y="-2212" />
            </Array>
          </mxGeometry>
        </mxCell>
        <mxCell id="HcI9NC6vFRKDhO4VCnra-77" value="Non" style="edgeLabel;html=1;align=center;verticalAlign=middle;resizable=0;points=[];" vertex="1" connectable="0" parent="HcI9NC6vFRKDhO4VCnra-76">
          <mxGeometry x="-0.379" y="1" relative="1" as="geometry">
            <mxPoint as="offset" />
          </mxGeometry>
        </mxCell>
        <mxCell id="HcI9NC6vFRKDhO4VCnra-81" style="edgeStyle=orthogonalEdgeStyle;rounded=0;orthogonalLoop=1;jettySize=auto;html=1;exitX=0;exitY=0.5;exitDx=0;exitDy=0;entryX=0.5;entryY=0;entryDx=0;entryDy=0;" edge="1" parent="1" source="nA2eG2OlHx3KnQ0AuUty-3" target="nA2eG2OlHx3KnQ0AuUty-4">
          <mxGeometry relative="1" as="geometry" />
        </mxCell>
        <mxCell id="HcI9NC6vFRKDhO4VCnra-82" value="Oui" style="edgeLabel;html=1;align=center;verticalAlign=middle;resizable=0;points=[];" vertex="1" connectable="0" parent="HcI9NC6vFRKDhO4VCnra-81">
          <mxGeometry x="0.1415" y="3" relative="1" as="geometry">
            <mxPoint y="1" as="offset" />
          </mxGeometry>
        </mxCell>
        <mxCell id="nA2eG2OlHx3KnQ0AuUty-3" value="Patient a une assurance ?&#xa;CNAM, S.A" style="rhombus;strokeWidth=2;whiteSpace=wrap;" parent="1" vertex="1">
          <mxGeometry x="-3360" y="-2360" width="110" height="120" as="geometry" />
        </mxCell>
        <mxCell id="HcI9NC6vFRKDhO4VCnra-93" style="edgeStyle=orthogonalEdgeStyle;rounded=0;orthogonalLoop=1;jettySize=auto;html=1;entryX=0;entryY=0.75;entryDx=0;entryDy=0;" edge="1" parent="1" source="nA2eG2OlHx3KnQ0AuUty-4" target="nA2eG2OlHx3KnQ0AuUty-6">
          <mxGeometry relative="1" as="geometry" />
        </mxCell>
        <mxCell id="nA2eG2OlHx3KnQ0AuUty-4" value="Vérification de la prise en charge / paiement montant partiel " style="whiteSpace=wrap;strokeWidth=2;" parent="1" vertex="1">
          <mxGeometry x="-3500" y="-2220" width="170" height="66" as="geometry" />
        </mxCell>
        <mxCell id="HcI9NC6vFRKDhO4VCnra-86" style="edgeStyle=orthogonalEdgeStyle;rounded=0;orthogonalLoop=1;jettySize=auto;html=1;entryX=0.5;entryY=0;entryDx=0;entryDy=0;" edge="1" parent="1" source="nA2eG2OlHx3KnQ0AuUty-5" target="nA2eG2OlHx3KnQ0AuUty-6">
          <mxGeometry relative="1" as="geometry" />
        </mxCell>
        <mxCell id="nA2eG2OlHx3KnQ0AuUty-5" value="Paiement avant consultation" style="whiteSpace=wrap;strokeWidth=2;" parent="1" vertex="1">
          <mxGeometry x="-3220" y="-2265" width="172" height="66" as="geometry" />
        </mxCell>
        <mxCell id="nA2eG2OlHx3KnQ0AuUty-6" value="Consultation avec le médecin" style="whiteSpace=wrap;strokeWidth=2;" parent="1" vertex="1">
          <mxGeometry x="-3237" y="-2184" width="206" height="66" as="geometry" />
        </mxCell>
        <mxCell id="nA2eG2OlHx3KnQ0AuUty-124" value="&lt;b&gt;&lt;font style=&quot;font-size: 15px;&quot;&gt;Scénario&amp;nbsp; patient&amp;nbsp;&lt;/font&gt;&lt;/b&gt;" style="text;whiteSpace=wrap;html=1;" parent="1" vertex="1">
          <mxGeometry x="-3480" y="-2481" width="170" height="40" as="geometry" />
        </mxCell>
        <mxCell id="01KoYUn2kBwgNXgJoXNt-3" value="" style="curved=1;startArrow=none;endArrow=block;exitX=0.5;exitY=1;entryX=0.5;entryY=-0.01;rounded=0;" parent="1" source="nA2eG2OlHx3KnQ0AuUty-6" target="01KoYUn2kBwgNXgJoXNt-2" edge="1">
          <mxGeometry relative="1" as="geometry">
            <Array as="points" />
            <mxPoint x="-2877" y="-1384" as="sourcePoint" />
            <mxPoint x="-2877" y="-1212" as="targetPoint" />
          </mxGeometry>
        </mxCell>
        <mxCell id="HcI9NC6vFRKDhO4VCnra-84" style="edgeStyle=orthogonalEdgeStyle;rounded=0;orthogonalLoop=1;jettySize=auto;html=1;exitX=0;exitY=0.5;exitDx=0;exitDy=0;entryX=1;entryY=0.5;entryDx=0;entryDy=0;" edge="1" parent="1" source="01KoYUn2kBwgNXgJoXNt-2" target="01KoYUn2kBwgNXgJoXNt-11">
          <mxGeometry relative="1" as="geometry" />
        </mxCell>
        <mxCell id="HcI9NC6vFRKDhO4VCnra-87" style="edgeStyle=orthogonalEdgeStyle;rounded=0;orthogonalLoop=1;jettySize=auto;html=1;exitX=1;exitY=0.5;exitDx=0;exitDy=0;entryX=0;entryY=0.5;entryDx=0;entryDy=0;" edge="1" parent="1" source="01KoYUn2kBwgNXgJoXNt-2" target="01KoYUn2kBwgNXgJoXNt-15">
          <mxGeometry relative="1" as="geometry" />
        </mxCell>
        <mxCell id="01KoYUn2kBwgNXgJoXNt-2" value="&lt;h3 style=&quot;line-height: 140%;&quot;&gt;&lt;font style=&quot;font-size: 11px; font-weight: normal;&quot;&gt;Examens supplémentaires (laboratoire, imagerie)&lt;/font&gt;&lt;/h3&gt;" style="rhombus;whiteSpace=wrap;html=1;align=center;" parent="1" vertex="1">
          <mxGeometry x="-3190" y="-2080.5" width="108.12" height="110.5" as="geometry" />
        </mxCell>
        <mxCell id="HcI9NC6vFRKDhO4VCnra-99" style="edgeStyle=orthogonalEdgeStyle;rounded=0;orthogonalLoop=1;jettySize=auto;html=1;entryX=0.25;entryY=1;entryDx=0;entryDy=0;curved=1;" edge="1" parent="1" source="01KoYUn2kBwgNXgJoXNt-11" target="01KoYUn2kBwgNXgJoXNt-24">
          <mxGeometry relative="1" as="geometry" />
        </mxCell>
        <mxCell id="01KoYUn2kBwgNXgJoXNt-11" value="&lt;span style=&quot;color: rgb(0, 0, 0); font-family: Helvetica; font-size: 12px; font-style: normal; font-variant-ligatures: normal; font-variant-caps: normal; font-weight: 400; letter-spacing: normal; orphans: 2; text-align: center; text-indent: 0px; text-transform: none; widows: 2; word-spacing: 0px; -webkit-text-stroke-width: 0px; white-space: normal; background-color: rgb(251, 251, 251); text-decoration-thickness: initial; text-decoration-style: initial; text-decoration-color: initial; display: inline !important; float: none;&quot;&gt;Prescription de medicament / traitements&lt;/span&gt;" style="whiteSpace=wrap;html=1;" parent="1" vertex="1">
          <mxGeometry x="-3413" y="-2053" width="120" height="56" as="geometry" />
        </mxCell>
        <mxCell id="01KoYUn2kBwgNXgJoXNt-15" value="Paiement des examens" style="whiteSpace=wrap;strokeWidth=2;" parent="1" vertex="1">
          <mxGeometry x="-3061" y="-2050" width="151" height="50" as="geometry" />
        </mxCell>
        <mxCell id="HcI9NC6vFRKDhO4VCnra-95" style="edgeStyle=orthogonalEdgeStyle;rounded=0;orthogonalLoop=1;jettySize=auto;html=1;" edge="1" parent="1" source="01KoYUn2kBwgNXgJoXNt-16" target="01KoYUn2kBwgNXgJoXNt-20">
          <mxGeometry relative="1" as="geometry" />
        </mxCell>
        <mxCell id="01KoYUn2kBwgNXgJoXNt-16" value="Réalisation des examens" style="whiteSpace=wrap;strokeWidth=2;" parent="1" vertex="1">
          <mxGeometry x="-3052.94" y="-1890" width="154.87" height="50" as="geometry" />
        </mxCell>
        <mxCell id="HcI9NC6vFRKDhO4VCnra-88" style="edgeStyle=orthogonalEdgeStyle;rounded=0;orthogonalLoop=1;jettySize=auto;html=1;exitX=0.5;exitY=1;exitDx=0;exitDy=0;entryX=0.5;entryY=0;entryDx=0;entryDy=0;" edge="1" parent="1" source="01KoYUn2kBwgNXgJoXNt-17" target="01KoYUn2kBwgNXgJoXNt-16">
          <mxGeometry relative="1" as="geometry" />
        </mxCell>
        <mxCell id="01KoYUn2kBwgNXgJoXNt-17" value="Prélèvement des échantillons" style="whiteSpace=wrap;strokeWidth=2;" parent="1" vertex="1">
          <mxGeometry x="-3061" y="-1970" width="171" height="60" as="geometry" />
        </mxCell>
        <mxCell id="HcI9NC6vFRKDhO4VCnra-98" style="edgeStyle=orthogonalEdgeStyle;rounded=0;orthogonalLoop=1;jettySize=auto;html=1;" edge="1" parent="1" source="01KoYUn2kBwgNXgJoXNt-20" target="01KoYUn2kBwgNXgJoXNt-22">
          <mxGeometry relative="1" as="geometry" />
        </mxCell>
        <mxCell id="01KoYUn2kBwgNXgJoXNt-20" value="Retour au medecin" style="whiteSpace=wrap;strokeWidth=2;" parent="1" vertex="1">
          <mxGeometry x="-3293" y="-1890" width="113" height="50" as="geometry" />
        </mxCell>
        <mxCell id="HcI9NC6vFRKDhO4VCnra-91" style="edgeStyle=orthogonalEdgeStyle;rounded=0;orthogonalLoop=1;jettySize=auto;html=1;entryX=0;entryY=0.75;entryDx=0;entryDy=0;" edge="1" parent="1" source="01KoYUn2kBwgNXgJoXNt-22" target="01KoYUn2kBwgNXgJoXNt-24">
          <mxGeometry relative="1" as="geometry" />
        </mxCell>
        <mxCell id="01KoYUn2kBwgNXgJoXNt-22" value="&lt;span style=&quot;color: rgb(0, 0, 0); font-family: Helvetica; font-size: 12px; font-style: normal; font-variant-ligatures: normal; font-variant-caps: normal; font-weight: 400; letter-spacing: normal; orphans: 2; text-align: center; text-indent: 0px; text-transform: none; widows: 2; word-spacing: 0px; -webkit-text-stroke-width: 0px; white-space: normal; background-color: rgb(251, 251, 251); text-decoration-thickness: initial; text-decoration-style: initial; text-decoration-color: initial; display: inline !important; float: none;&quot;&gt;Prescription des medicaments / traitements&lt;/span&gt;" style="whiteSpace=wrap;html=1;" parent="1" vertex="1">
          <mxGeometry x="-3297" y="-1795" width="120" height="53" as="geometry" />
        </mxCell>
        <mxCell id="01KoYUn2kBwgNXgJoXNt-24" value="FIN" style="whiteSpace=wrap;html=1;" parent="1" vertex="1">
          <mxGeometry x="-3030" y="-1810" width="120" height="56" as="geometry" />
        </mxCell>
        <mxCell id="HcI9NC6vFRKDhO4VCnra-94" style="edgeStyle=orthogonalEdgeStyle;rounded=0;orthogonalLoop=1;jettySize=auto;html=1;exitX=0.5;exitY=1;exitDx=0;exitDy=0;entryX=0.448;entryY=-0.01;entryDx=0;entryDy=0;entryPerimeter=0;" edge="1" parent="1" source="01KoYUn2kBwgNXgJoXNt-15" target="01KoYUn2kBwgNXgJoXNt-17">
          <mxGeometry relative="1" as="geometry" />
        </mxCell>
        <mxCell id="HcI9NC6vFRKDhO4VCnra-142" style="edgeStyle=orthogonalEdgeStyle;rounded=0;orthogonalLoop=1;jettySize=auto;html=1;" edge="1" parent="1" source="HcI9NC6vFRKDhO4VCnra-143">
          <mxGeometry relative="1" as="geometry">
            <mxPoint x="-3016.5" y="-1491" as="targetPoint" />
          </mxGeometry>
        </mxCell>
        <mxCell id="HcI9NC6vFRKDhO4VCnra-143" value="Hospitalisation" style="whiteSpace=wrap;strokeWidth=2;" vertex="1" parent="1">
          <mxGeometry x="-3286.5" y="-1565" width="166" height="49" as="geometry" />
        </mxCell>
        <mxCell id="HcI9NC6vFRKDhO4VCnra-144" value="Sortie et paiement des frais de Chambre et hopitalisation, medicaments" style="whiteSpace=wrap;strokeWidth=2;" vertex="1" parent="1">
          <mxGeometry x="-3330" y="-1065" width="227" height="70" as="geometry" />
        </mxCell>
        <mxCell id="HcI9NC6vFRKDhO4VCnra-145" value="Fin" style="whiteSpace=wrap;strokeWidth=2;" vertex="1" parent="1">
          <mxGeometry x="-3244.5" y="-965" width="82" height="49" as="geometry" />
        </mxCell>
        <mxCell id="HcI9NC6vFRKDhO4VCnra-146" style="edgeStyle=orthogonalEdgeStyle;rounded=0;orthogonalLoop=1;jettySize=auto;html=1;" edge="1" parent="1" source="HcI9NC6vFRKDhO4VCnra-147">
          <mxGeometry relative="1" as="geometry">
            <mxPoint x="-2796.5" y="-1461.75" as="targetPoint" />
          </mxGeometry>
        </mxCell>
        <mxCell id="HcI9NC6vFRKDhO4VCnra-147" value="Prescription par le médecin sur la Fiche d&#39;hospitalisation" style="whiteSpace=wrap;strokeWidth=2;" vertex="1" parent="1">
          <mxGeometry x="-3086.5" y="-1482.5" width="166" height="41.5" as="geometry" />
        </mxCell>
        <mxCell id="HcI9NC6vFRKDhO4VCnra-148" style="edgeStyle=orthogonalEdgeStyle;rounded=0;orthogonalLoop=1;jettySize=auto;html=1;exitX=0.5;exitY=1;exitDx=0;exitDy=0;entryX=0.5;entryY=0;entryDx=0;entryDy=0;" edge="1" parent="1" source="HcI9NC6vFRKDhO4VCnra-149" target="HcI9NC6vFRKDhO4VCnra-150">
          <mxGeometry relative="1" as="geometry" />
        </mxCell>
        <mxCell id="HcI9NC6vFRKDhO4VCnra-149" value="Remplissage de certificat d&#39;accouchement" style="whiteSpace=wrap;strokeWidth=2;" vertex="1" parent="1">
          <mxGeometry x="-2926.5" y="-1221" width="166" height="49" as="geometry" />
        </mxCell>
        <mxCell id="HcI9NC6vFRKDhO4VCnra-150" value="Signature du fiche" style="whiteSpace=wrap;strokeWidth=2;" vertex="1" parent="1">
          <mxGeometry x="-2926.5" y="-1135" width="166" height="49" as="geometry" />
        </mxCell>
        <mxCell id="HcI9NC6vFRKDhO4VCnra-151" value="" style="edgeStyle=orthogonalEdgeStyle;rounded=0;orthogonalLoop=1;jettySize=auto;html=1;" edge="1" parent="1" source="HcI9NC6vFRKDhO4VCnra-152" target="HcI9NC6vFRKDhO4VCnra-159">
          <mxGeometry relative="1" as="geometry" />
        </mxCell>
        <mxCell id="HcI9NC6vFRKDhO4VCnra-152" value="Administration des soins par l’infirmier" style="whiteSpace=wrap;strokeWidth=2;" vertex="1" parent="1">
          <mxGeometry x="-3299.5" y="-1360" width="166" height="49" as="geometry" />
        </mxCell>
        <mxCell id="HcI9NC6vFRKDhO4VCnra-153" style="edgeStyle=orthogonalEdgeStyle;rounded=0;orthogonalLoop=1;jettySize=auto;html=1;entryX=0.548;entryY=0.082;entryDx=0;entryDy=0;entryPerimeter=0;" edge="1" parent="1" source="HcI9NC6vFRKDhO4VCnra-152" target="HcI9NC6vFRKDhO4VCnra-149">
          <mxGeometry relative="1" as="geometry" />
        </mxCell>
        <mxCell id="HcI9NC6vFRKDhO4VCnra-154" style="edgeStyle=orthogonalEdgeStyle;rounded=0;orthogonalLoop=1;jettySize=auto;html=1;entryX=0.354;entryY=0.041;entryDx=0;entryDy=0;entryPerimeter=0;" edge="1" parent="1" source="HcI9NC6vFRKDhO4VCnra-144" target="HcI9NC6vFRKDhO4VCnra-145">
          <mxGeometry relative="1" as="geometry" />
        </mxCell>
        <mxCell id="HcI9NC6vFRKDhO4VCnra-155" style="edgeStyle=orthogonalEdgeStyle;rounded=0;orthogonalLoop=1;jettySize=auto;html=1;" edge="1" parent="1" source="HcI9NC6vFRKDhO4VCnra-156" target="HcI9NC6vFRKDhO4VCnra-152">
          <mxGeometry relative="1" as="geometry">
            <Array as="points">
              <mxPoint x="-2703.5" y="-1401" />
              <mxPoint x="-3216.5" y="-1401" />
            </Array>
          </mxGeometry>
        </mxCell>
        <mxCell id="HcI9NC6vFRKDhO4VCnra-156" value="Obtenir les médicaments injectables à la pharmacie" style="whiteSpace=wrap;strokeWidth=2;" vertex="1" parent="1">
          <mxGeometry x="-2786.5" y="-1482.5" width="166" height="51.5" as="geometry" />
        </mxCell>
        <mxCell id="HcI9NC6vFRKDhO4VCnra-157" style="edgeStyle=orthogonalEdgeStyle;rounded=0;orthogonalLoop=1;jettySize=auto;html=1;entryX=0;entryY=0.5;entryDx=0;entryDy=0;" edge="1" parent="1" source="HcI9NC6vFRKDhO4VCnra-159" target="HcI9NC6vFRKDhO4VCnra-149">
          <mxGeometry relative="1" as="geometry" />
        </mxCell>
        <mxCell id="HcI9NC6vFRKDhO4VCnra-158" value="Oui" style="edgeLabel;html=1;align=center;verticalAlign=middle;resizable=0;points=[];" vertex="1" connectable="0" parent="HcI9NC6vFRKDhO4VCnra-157">
          <mxGeometry x="0.1645" y="-1" relative="1" as="geometry">
            <mxPoint y="1" as="offset" />
          </mxGeometry>
        </mxCell>
        <mxCell id="HcI9NC6vFRKDhO4VCnra-159" value="Accouchement ?&amp;nbsp;" style="rhombus;whiteSpace=wrap;html=1;strokeWidth=2;" vertex="1" parent="1">
          <mxGeometry x="-3281.5" y="-1252.87" width="130" height="112.75" as="geometry" />
        </mxCell>
        <mxCell id="HcI9NC6vFRKDhO4VCnra-160" style="edgeStyle=orthogonalEdgeStyle;rounded=0;orthogonalLoop=1;jettySize=auto;html=1;entryX=0.514;entryY=0.152;entryDx=0;entryDy=0;entryPerimeter=0;" edge="1" parent="1" source="HcI9NC6vFRKDhO4VCnra-159" target="HcI9NC6vFRKDhO4VCnra-144">
          <mxGeometry relative="1" as="geometry" />
        </mxCell>
        <mxCell id="HcI9NC6vFRKDhO4VCnra-161" value="Non" style="edgeLabel;html=1;align=center;verticalAlign=middle;resizable=0;points=[];" vertex="1" connectable="0" parent="HcI9NC6vFRKDhO4VCnra-160">
          <mxGeometry x="-0.2053" y="3" relative="1" as="geometry">
            <mxPoint y="-4" as="offset" />
          </mxGeometry>
        </mxCell>
        <mxCell id="HcI9NC6vFRKDhO4VCnra-162" style="edgeStyle=orthogonalEdgeStyle;rounded=0;orthogonalLoop=1;jettySize=auto;html=1;entryX=0.986;entryY=0.379;entryDx=0;entryDy=0;entryPerimeter=0;" edge="1" parent="1" source="HcI9NC6vFRKDhO4VCnra-150" target="HcI9NC6vFRKDhO4VCnra-144">
          <mxGeometry relative="1" as="geometry">
            <Array as="points">
              <mxPoint x="-2836.5" y="-1025" />
              <mxPoint x="-3106.5" y="-1025" />
            </Array>
          </mxGeometry>
        </mxCell>
        <mxCell id="HcI9NC6vFRKDhO4VCnra-163" value="&lt;h3&gt;&lt;strong&gt;Hospitalisation&lt;/strong&gt;&lt;/h3&gt;&lt;ul&gt;&lt;li&gt;&lt;/li&gt;&lt;/ul&gt;" style="text;whiteSpace=wrap;html=1;" vertex="1" parent="1">
          <mxGeometry x="-3293" y="-1650" width="380" height="50" as="geometry" />
        </mxCell>
      </root>
    </mxGraphModel>
  </diagram>
</mxfile>
